<?xml version="1.0" standalone="no"?>
<!DOCTYPE svg PUBLIC "-//W3C//DTD SVG 20010904//EN"
 "http://www.w3.org/TR/2001/REC-SVG-20010904/DTD/svg10.dtd">
<svg version="1.0" xmlns="http://www.w3.org/2000/svg"
 width="512.000000pt" height="512.000000pt" viewBox="0 0 512.000000 512.000000"
 preserveAspectRatio="xMidYMid meet">

<g transform="translate(0.000000,512.000000) scale(0.100000,-0.100000)"
fill="#000000" stroke="none">
<path d="M673 4936 c-88 -28 -175 -106 -216 -194 -20 -44 -22 -64 -25 -349
l-3 -303 -108 0 c-132 0 -194 -17 -244 -65 -57 -55 -71 -90 -71 -170 0 -80 14
-115 71 -170 50 -48 112 -65 245 -65 l108 0 0 -130 0 -130 -127 0 c-150 0
-188 -13 -245 -79 -93 -109 -67 -270 56 -346 47 -29 55 -30 183 -33 l133 -4 0
-129 0 -129 -117 0 c-65 0 -134 -4 -153 -10 -84 -23 -160 -128 -160 -220 0
-87 64 -182 147 -217 21 -8 75 -13 158 -13 l125 0 0 -129 0 -129 -133 -4
c-128 -3 -136 -4 -183 -33 -124 -77 -149 -240 -53 -349 55 -62 100 -78 246
-84 l122 -5 3 -296 3 -296 29 -62 c55 -119 164 -191 305 -200 l78 -6 6 -79
c11 -139 79 -245 194 -304 l58 -29 1430 0 1430 0 67 33 c73 36 124 87 160 161
l23 46 3 1100 2 1100 429 430 c236 236 437 446 447 465 27 51 25 162 -3 215
-28 53 -230 251 -276 270 -20 8 -64 15 -97 15 -94 0 -132 -25 -325 -219 l-170
-171 -5 332 -5 333 -27 50 c-58 111 -174 183 -307 192 l-79 6 -4 81 c-7 142
-76 248 -197 305 l-56 26 -1415 2 c-1144 1 -1423 -1 -1457 -11z m2863 -182
c19 -9 44 -31 57 -48 l22 -31 3 -830 2 -830 -430 -430 -431 -431 -65 -272
c-71 -299 -71 -308 -12 -341 31 -18 38 -17 363 61 l210 50 183 181 182 181 0
-565 0 -566 -23 -34 c-12 -18 -38 -44 -56 -56 l-34 -23 -1398 2 c-1394 3
-1398 3 -1425 24 -15 11 -37 33 -48 48 -20 26 -21 43 -24 315 l-3 288 123 5
c134 6 182 19 231 66 99 94 94 270 -9 348 -56 43 -99 53 -226 54 l-118 0 0
130 0 130 119 0 c65 0 133 5 152 11 134 45 197 210 126 331 -55 94 -112 118
-278 118 l-119 0 0 129 0 129 133 4 c128 3 136 4 183 33 30 19 60 49 79 79 70
115 18 278 -105 329 -20 9 -91 18 -162 22 l-128 7 0 124 0 124 106 0 c147 0
187 12 250 75 42 42 54 61 64 107 20 86 1 149 -64 213 -63 63 -103 75 -250 75
l-106 0 0 284 c0 278 0 284 23 317 12 18 38 44 56 56 l34 23 1389 0 c1262 0
1393 -1 1424 -16z m-2698 -860 c26 -18 28 -50 5 -76 -15 -17 -38 -18 -321 -18
-270 0 -308 2 -324 17 -22 20 -23 51 -1 75 15 17 38 18 317 18 257 0 305 -2
324 -16z m3717 -454 l120 -120 -730 -730 -730 -730 -125 125 -125 125 725 725
c399 399 730 725 735 725 6 0 64 -54 130 -120z m-3715 -270 c24 -24 25 -47 3
-72 -15 -17 -38 -18 -324 -18 -334 0 -339 1 -339 55 0 52 19 55 342 55 285 0
299 -1 318 -20z m12 -735 c8 -19 8 -31 0 -50 l-12 -25 -318 0 c-340 0 -342 0
-342 50 0 50 2 50 342 50 l318 0 12 -25z m2175 -652 c-7 -6 -171 -42 -176 -38
-5 5 27 153 36 169 3 4 36 -23 74 -60 38 -37 67 -69 66 -71z m-2185 -60 c24
-21 23 -48 -2 -73 -19 -19 -33 -20 -318 -20 -323 0 -342 3 -342 55 0 54 5 55
337 55 271 0 309 -2 325 -17z"/>
<path d="M1326 4338 c-15 -13 -29 -37 -32 -54 -5 -26 0 -38 24 -65 l30 -34
849 -3 c466 -2 863 0 882 3 77 14 107 96 55 149 l-27 26 -878 0 -878 0 -25
-22z"/>
<path d="M1327 3740 c-56 -44 -39 -130 31 -150 26 -8 297 -10 895 -8 l859 3
24 28 c33 39 31 81 -5 118 l-29 29 -875 0 c-861 0 -875 0 -900 -20z"/>
<path d="M1327 3140 c-51 -41 -40 -124 20 -149 21 -8 256 -11 896 -9 l869 3
24 28 c33 39 31 81 -5 118 l-29 29 -875 0 c-861 0 -875 0 -900 -20z"/>
<path d="M1350 2553 c-73 -27 -75 -132 -3 -162 21 -8 200 -11 671 -9 l644 3
24 28 c35 41 32 88 -7 121 l-31 26 -641 -1 c-353 0 -649 -3 -657 -6z"/>
<path d="M1342 1950 c-12 -5 -30 -25 -39 -45 -16 -33 -16 -37 0 -70 9 -20 29
-40 43 -45 17 -7 214 -10 541 -8 l515 3 24 28 c31 36 31 78 0 114 l-24 28
-519 2 c-297 1 -528 -2 -541 -7z"/>
<path d="M1339 1345 c-14 -8 -32 -28 -39 -45 -11 -27 -11 -37 3 -66 9 -19 28
-39 43 -44 15 -6 199 -10 454 -10 255 0 439 4 454 10 15 5 34 25 43 44 14 29
14 39 3 66 -25 60 -26 60 -502 60 -354 -1 -438 -3 -459 -15z"/>
</g>
</svg>
